<svg id="visual" viewBox="0 0 900 600" width="900" height="600" xmlns="http://www.w3.org/2000/svg" xmlns:xlink="http://www.w3.org/1999/xlink" version="1.1"><rect x="0" y="0" width="900" height="600" fill="#fff"></rect><defs><linearGradient id="grad1_0" x1="33.3%" y1="0%" x2="100%" y2="100%"><stop offset="20%" stop-color="#a00808" stop-opacity="1"></stop><stop offset="80%" stop-color="#a00808" stop-opacity="1"></stop></linearGradient></defs><defs><linearGradient id="grad1_1" x1="33.3%" y1="0%" x2="100%" y2="100%"><stop offset="20%" stop-color="#a00808" stop-opacity="1"></stop><stop offset="80%" stop-color="#b43c29" stop-opacity="1"></stop></linearGradient></defs><defs><linearGradient id="grad1_2" x1="33.3%" y1="0%" x2="100%" y2="100%"><stop offset="20%" stop-color="#c65e49" stop-opacity="1"></stop><stop offset="80%" stop-color="#b43c29" stop-opacity="1"></stop></linearGradient></defs><defs><linearGradient id="grad1_3" x1="33.3%" y1="0%" x2="100%" y2="100%"><stop offset="20%" stop-color="#c65e49" stop-opacity="1"></stop><stop offset="80%" stop-color="#d57e6b" stop-opacity="1"></stop></linearGradient></defs><defs><linearGradient id="grad1_4" x1="33.3%" y1="0%" x2="100%" y2="100%"><stop offset="20%" stop-color="#e39e8e" stop-opacity="1"></stop><stop offset="80%" stop-color="#d57e6b" stop-opacity="1"></stop></linearGradient></defs><defs><linearGradient id="grad1_5" x1="33.3%" y1="0%" x2="100%" y2="100%"><stop offset="20%" stop-color="#e39e8e" stop-opacity="1"></stop><stop offset="80%" stop-color="#efbeb2" stop-opacity="1"></stop></linearGradient></defs><defs><linearGradient id="grad1_6" x1="33.3%" y1="0%" x2="100%" y2="100%"><stop offset="20%" stop-color="#f8ded8" stop-opacity="1"></stop><stop offset="80%" stop-color="#efbeb2" stop-opacity="1"></stop></linearGradient></defs><defs><linearGradient id="grad1_7" x1="33.3%" y1="0%" x2="100%" y2="100%"><stop offset="20%" stop-color="#f8ded8" stop-opacity="1"></stop><stop offset="80%" stop-color="#ffffff" stop-opacity="1"></stop></linearGradient></defs><defs><linearGradient id="grad2_0" x1="0%" y1="0%" x2="66.7%" y2="100%"><stop offset="20%" stop-color="#a00808" stop-opacity="1"></stop><stop offset="80%" stop-color="#a00808" stop-opacity="1"></stop></linearGradient></defs><defs><linearGradient id="grad2_1" x1="0%" y1="0%" x2="66.7%" y2="100%"><stop offset="20%" stop-color="#b43c29" stop-opacity="1"></stop><stop offset="80%" stop-color="#a00808" stop-opacity="1"></stop></linearGradient></defs><defs><linearGradient id="grad2_2" x1="0%" y1="0%" x2="66.7%" y2="100%"><stop offset="20%" stop-color="#b43c29" stop-opacity="1"></stop><stop offset="80%" stop-color="#c65e49" stop-opacity="1"></stop></linearGradient></defs><defs><linearGradient id="grad2_3" x1="0%" y1="0%" x2="66.7%" y2="100%"><stop offset="20%" stop-color="#d57e6b" stop-opacity="1"></stop><stop offset="80%" stop-color="#c65e49" stop-opacity="1"></stop></linearGradient></defs><defs><linearGradient id="grad2_4" x1="0%" y1="0%" x2="66.7%" y2="100%"><stop offset="20%" stop-color="#d57e6b" stop-opacity="1"></stop><stop offset="80%" stop-color="#e39e8e" stop-opacity="1"></stop></linearGradient></defs><defs><linearGradient id="grad2_5" x1="0%" y1="0%" x2="66.7%" y2="100%"><stop offset="20%" stop-color="#efbeb2" stop-opacity="1"></stop><stop offset="80%" stop-color="#e39e8e" stop-opacity="1"></stop></linearGradient></defs><defs><linearGradient id="grad2_6" x1="0%" y1="0%" x2="66.7%" y2="100%"><stop offset="20%" stop-color="#efbeb2" stop-opacity="1"></stop><stop offset="80%" stop-color="#f8ded8" stop-opacity="1"></stop></linearGradient></defs><defs><linearGradient id="grad2_7" x1="0%" y1="0%" x2="66.7%" y2="100%"><stop offset="20%" stop-color="#ffffff" stop-opacity="1"></stop><stop offset="80%" stop-color="#f8ded8" stop-opacity="1"></stop></linearGradient></defs><g transform="translate(900, 0)"><path d="M0 324.5C-57.5 316.4 -115 308.4 -162.2 281C-209.5 253.7 -246.6 207.1 -271.9 157C-297.3 106.9 -310.9 53.5 -324.5 0L0 0Z" fill="#fcefeb"></path><path d="M0 283.9C-50.3 276.9 -100.6 269.8 -142 245.9C-183.3 222 -215.8 181.2 -237.9 137.4C-260.1 93.6 -272 46.8 -283.9 0L0 0Z" fill="#f4cec5"></path><path d="M0 243.4C-43.1 237.3 -86.2 231.3 -121.7 210.8C-157.1 190.3 -184.9 155.3 -203.9 117.8C-223 80.2 -233.2 40.1 -243.4 0L0 0Z" fill="#e9aea0"></path><path d="M0 202.8C-35.9 197.8 -71.9 192.7 -101.4 175.6C-131 158.5 -154.1 129.4 -170 98.1C-185.8 66.8 -194.3 33.4 -202.8 0L0 0Z" fill="#dd8e7c"></path><path d="M0 162.2C-28.7 158.2 -57.5 154.2 -81.1 140.5C-104.8 126.8 -123.3 103.5 -136 78.5C-148.6 53.5 -155.4 26.7 -162.2 0L0 0Z" fill="#ce6e5a"></path><path d="M0 121.7C-21.6 118.7 -43.1 115.6 -60.8 105.4C-78.6 95.1 -92.5 77.6 -102 58.9C-111.5 40.1 -116.6 20.1 -121.7 0L0 0Z" fill="#bd4d39"></path><path d="M0 81.1C-14.4 79.1 -28.7 77.1 -40.6 70.3C-52.4 63.4 -61.6 51.8 -68 39.3C-74.3 26.7 -77.7 13.4 -81.1 0L0 0Z" fill="#aa2819"></path><path d="M0 40.6C-7.2 39.6 -14.4 38.5 -20.3 35.1C-26.2 31.7 -30.8 25.9 -34 19.6C-37.2 13.4 -38.9 6.7 -40.6 0L0 0Z" fill="#a00808"></path></g><g transform="translate(0, 600)"><path d="M0 -324.5C59.8 -317.8 119.6 -311 162.2 -281C204.9 -251 230.4 -197.7 254.6 -147C278.8 -96.3 301.6 -48.1 324.5 0L0 0Z" fill="#fcefeb"></path><path d="M0 -283.9C52.3 -278 104.6 -272.2 142 -245.9C179.3 -219.6 201.6 -173 222.8 -128.6C243.9 -84.2 263.9 -42.1 283.9 0L0 0Z" fill="#f4cec5"></path><path d="M0 -243.4C44.8 -238.3 89.7 -233.3 121.7 -210.8C153.7 -188.3 172.8 -148.3 191 -110.3C209.1 -72.2 226.2 -36.1 243.4 0L0 0Z" fill="#e9aea0"></path><path d="M0 -202.8C37.4 -198.6 74.7 -194.4 101.4 -175.6C128.1 -156.9 144 -123.6 159.1 -91.9C174.2 -60.2 188.5 -30.1 202.8 0L0 0Z" fill="#dd8e7c"></path><path d="M0 -162.2C29.9 -158.9 59.8 -155.5 81.1 -140.5C102.5 -125.5 115.2 -98.9 127.3 -73.5C139.4 -48.1 150.8 -24.1 162.2 0L0 0Z" fill="#ce6e5a"></path><path d="M0 -121.7C22.4 -119.2 44.8 -116.6 60.8 -105.4C76.8 -94.1 86.4 -74.1 95.5 -55.1C104.5 -36.1 113.1 -18.1 121.7 0L0 0Z" fill="#bd4d39"></path><path d="M0 -81.1C14.9 -79.4 29.9 -77.8 40.6 -70.3C51.2 -62.8 57.6 -49.4 63.7 -36.8C69.7 -24.1 75.4 -12 81.1 0L0 0Z" fill="#aa2819"></path><path d="M0 -40.6C7.5 -39.7 14.9 -38.9 20.3 -35.1C25.6 -31.4 28.8 -24.7 31.8 -18.4C34.8 -12 37.7 -6 40.6 0L0 0Z" fill="#a00808"></path></g></svg>